<svg width="293" height="207" viewBox="0 0 293 207" fill="none" xmlns="http://www.w3.org/2000/svg">
<g clip-path="url(#clip0)">
<path d="M293.3 146.345C293.298 124.439 288.393 102.81 278.945 83.046C269.497 63.2816 255.746 45.8823 238.699 32.1238C221.652 18.3653 201.742 8.59643 180.429 3.53337C159.115 -1.52968 136.939 -1.75851 115.526 2.86367C94.1125 7.48584 74.0052 16.8418 56.678 30.2456C39.3509 43.6494 25.2432 60.7612 15.3895 80.3264C5.5357 99.8916 0.185635 121.414 -0.268458 143.316C-0.72255 165.218 3.73084 186.943 12.7652 206.9H280.235C288.864 187.88 293.319 167.231 293.3 146.345V146.345Z" fill="#F0FFF7"/>
<path d="M241.92 197.725V182.825C241.92 181.91 241.557 181.032 240.91 180.385C240.263 179.738 239.385 179.375 238.47 179.375H125.581L121.507 197.725H241.92Z" fill="#D6FFF0"/>
<path d="M195.054 179.375H125.581L121.507 197.725H176.704L195.054 179.375Z" fill="white"/>
<path d="M121.177 197.725L118.975 206.9H251.095V177.907C251.095 176.35 250.476 174.856 249.375 173.755C248.274 172.654 246.78 172.035 245.223 172.035H131.233C130.248 172.037 129.292 172.366 128.515 172.97C127.737 173.575 127.183 174.421 126.939 175.375L125.581 179.375H238.47C239.385 179.375 240.263 179.738 240.91 180.385C241.557 181.032 241.92 181.91 241.92 182.825V197.725H121.177Z" fill="white"/>
<path d="M121.177 197.725L118.975 206.9H251.095V177.907C251.095 176.35 250.476 174.856 249.375 173.755C248.274 172.654 246.78 172.035 245.223 172.035H131.233C130.248 172.037 129.292 172.366 128.515 172.97C127.737 173.575 127.183 174.421 126.939 175.375L125.581 179.375H238.47C239.385 179.375 240.263 179.738 240.91 180.385C241.557 181.032 241.92 181.91 241.92 182.825V197.725H121.177Z" stroke="#45E5E5" stroke-linecap="round" stroke-linejoin="round"/>
<path d="M241.92 197.725V182.825C241.92 181.91 241.557 181.032 240.91 180.385C240.263 179.738 239.385 179.375 238.47 179.375H125.581L121.507 197.725H241.92Z" stroke="#45E5E5" stroke-linecap="round" stroke-linejoin="round"/>
<path d="M150.17 165.796V172.035H245.223C246.78 172.035 248.274 172.654 249.375 173.755C250.476 174.856 251.095 176.35 251.095 177.907V206.9H273.115V165.796C273.12 164.927 272.952 164.066 272.622 163.262C272.292 162.459 271.805 161.728 271.191 161.114C270.577 160.5 269.846 160.013 269.043 159.683C268.239 159.353 267.378 159.185 266.509 159.19H156.776C155.907 159.185 155.046 159.353 154.242 159.683C153.439 160.013 152.708 160.5 152.094 161.114C151.48 161.728 150.993 162.459 150.663 163.262C150.333 164.066 150.165 164.927 150.17 165.796Z" fill="white"/>
<path d="M150.17 165.796V172.035H245.223C246.78 172.035 248.274 172.654 249.375 173.755C250.476 174.856 251.095 176.35 251.095 177.907V206.9H273.115V165.796C273.12 164.927 272.952 164.066 272.622 163.262C272.292 162.459 271.805 161.728 271.191 161.114C270.577 160.5 269.846 160.013 269.043 159.683C268.239 159.353 267.378 159.185 266.509 159.19H156.776C155.907 159.185 155.046 159.353 154.242 159.683C153.439 160.013 152.708 160.5 152.094 161.114C151.48 161.728 150.993 162.459 150.663 163.262C150.333 164.066 150.165 164.927 150.17 165.796Z" stroke="#45E5E5" stroke-linecap="round" stroke-linejoin="round"/>
<path d="M196.779 150.015C195.611 150.015 194.491 150.479 193.665 151.305C192.839 152.131 192.375 153.251 192.375 154.419V159.19H262.105V154.419C262.105 153.251 261.641 152.131 260.815 151.305C259.989 150.479 258.869 150.015 257.701 150.015H196.779Z" fill="white" stroke="#45E5E5" stroke-linecap="round" stroke-linejoin="round"/>
<path d="M193.843 69.275C193.566 69.2784 193.293 69.3398 193.042 69.4551C192.79 69.5704 192.565 69.7372 192.382 69.9446C192.199 70.1521 192.061 70.3956 191.978 70.6595C191.894 70.9235 191.867 71.2019 191.898 71.477L193.146 82.12H260.6L261.848 71.477C261.879 71.2019 261.852 70.9235 261.768 70.6595C261.685 70.3956 261.547 70.1521 261.364 69.9446C261.181 69.7372 260.956 69.5704 260.704 69.4551C260.453 69.3398 260.18 69.2784 259.903 69.275H193.843Z" fill="white"/>
<path d="M193.843 69.275C193.566 69.2784 193.293 69.3398 193.042 69.4551C192.79 69.5704 192.565 69.7372 192.382 69.9446C192.199 70.1521 192.061 70.3956 191.978 70.6595C191.894 70.9235 191.867 71.2019 191.898 71.477L193.146 82.12H260.6L261.848 71.477C261.879 71.2019 261.852 70.9235 261.768 70.6595C261.685 70.3956 261.547 70.1521 261.364 69.9446C261.181 69.7372 260.956 69.5704 260.704 69.4551C260.453 69.3398 260.18 69.2784 259.903 69.275H193.843Z" stroke="#45E5E5" stroke-linecap="round" stroke-linejoin="round"/>
<path d="M249.26 126.16H205.22V150.015H249.26V126.16Z" fill="white"/>
<path d="M249.26 107.81H205.22V116.985H249.26V107.81Z" fill="white" stroke="#45E5E5" stroke-linecap="round" stroke-linejoin="round"/>
<path d="M204.853 69.275H248.893C248.893 65.605 245.847 60.1 242.104 60.1H211.643C207.899 60.1 204.853 65.5316 204.853 69.275Z" fill="white"/>
<path d="M204.853 69.275H248.893C248.893 65.605 245.847 60.1 242.104 60.1H211.643C207.899 60.1 204.853 65.5316 204.853 69.275Z" stroke="#45E5E5" stroke-linecap="round" stroke-linejoin="round"/>
<path d="M249.26 126.16H205.22V150.015H249.26V126.16Z" stroke="#45E5E5" stroke-linecap="round" stroke-linejoin="round"/>
<path d="M202.651 116.985C201.447 117.069 200.321 117.61 199.502 118.497C198.684 119.383 198.235 120.549 198.247 121.756C198.247 122.924 198.711 124.044 199.537 124.87C200.363 125.696 201.483 126.16 202.651 126.16H251.095C252.263 126.16 253.383 125.696 254.209 124.87C255.035 124.044 255.499 122.924 255.499 121.756C255.511 120.549 255.062 119.383 254.244 118.497C253.425 117.61 252.299 117.069 251.095 116.985H202.651Z" fill="white" stroke="#45E5E5" stroke-linecap="round" stroke-linejoin="round"/>
<path d="M260.6 82.12L258.068 104.544C257.968 105.445 257.538 106.278 256.86 106.882C256.182 107.485 255.305 107.816 254.398 107.81H199.348C198.441 107.816 197.564 107.485 196.886 106.882C196.208 106.278 195.778 105.445 195.678 104.544L193.146 82.12H260.6Z" fill="#D6FFF0"/>
<path d="M193.146 82.12L195.678 104.544C195.778 105.445 196.208 106.278 196.886 106.882C197.564 107.485 198.441 107.816 199.348 107.81H214.615L240.305 82.12H193.146Z" fill="white"/>
<path d="M260.6 82.12L258.068 104.544C257.968 105.445 257.538 106.278 256.86 106.882C256.182 107.485 255.305 107.816 254.398 107.81H199.348C198.441 107.816 197.564 107.485 196.886 106.882C196.208 106.278 195.778 105.445 195.678 104.544L193.146 82.12H260.6Z" stroke="#45E5E5" stroke-linecap="round" stroke-linejoin="round"/>
<path d="M227.24 60.1V43.585" stroke="#45E5E5" stroke-linecap="round" stroke-linejoin="round"/>
<path d="M216.23 60.1V54.595" stroke="#45E5E5" stroke-linecap="round" stroke-linejoin="round"/>
<path d="M238.25 60.1V54.595" stroke="#45E5E5" stroke-linecap="round" stroke-linejoin="round"/>
<path d="M251.095 82.12V107.81" stroke="#45E5E5" stroke-linecap="round" stroke-linejoin="round"/>
<path d="M236.415 82.12V107.81" stroke="#45E5E5" stroke-linecap="round" stroke-linejoin="round"/>
<path d="M218.065 82.12V107.81" stroke="#45E5E5" stroke-linecap="round" stroke-linejoin="round"/>
<path d="M203.385 82.12V107.81" stroke="#45E5E5" stroke-linecap="round" stroke-linejoin="round"/>
<path d="M227.24 179.375V197.725" stroke="#45E5E5" stroke-linecap="round" stroke-linejoin="round"/>
<path d="M208.89 179.375V197.725" stroke="#45E5E5" stroke-linecap="round" stroke-linejoin="round"/>
<path d="M190.54 179.375V197.725" stroke="#45E5E5" stroke-linecap="round" stroke-linejoin="round"/>
<path d="M172.19 179.375V197.725" stroke="#45E5E5" stroke-linecap="round" stroke-linejoin="round"/>
<path d="M153.84 179.375V197.725" stroke="#45E5E5" stroke-linecap="round" stroke-linejoin="round"/>
<path d="M136.958 180.476V198.092" stroke="#45E5E5" stroke-linecap="round" stroke-linejoin="round"/>
</g>
<defs>
<clipPath id="clip0">
<rect width="293" height="207" fill="white"/>
</clipPath>
</defs>
</svg>

